<svg width="200" height="228" viewBox="0 0 200 228" fill="none" xmlns="http://www.w3.org/2000/svg">
<path fill-rule="evenodd" clip-rule="evenodd" d="M199.592 115.438C199.963 97.6363 200.507 71.5252 199.059 64C187.186 70.9241 175.261 77.7407 163.334 84.5581C143.932 95.6478 124.526 106.74 105.34 118.3L105.371 190.982C105.367 194.286 105.279 197.736 105.19 201.242C104.973 209.773 104.747 218.639 105.705 226.547L124.145 216.032V172.64L199.36 129.072C199.372 125.958 199.473 121.122 199.592 115.438ZM180.676 114.461C180.921 108.598 181.31 99.2775 179.711 96.9648C161.233 107.826 142.71 118.572 124.141 129.203C124.134 130.101 124.084 131.379 124.025 132.87C123.795 138.701 123.436 147.796 125.031 150.218L180.552 118.111C180.56 117.238 180.614 115.963 180.676 114.461Z" fill="black"/>
<path d="M0.014565 65C10.7773 70.4174 21.3606 77.1541 31.8905 83.236L93.843 119.082L93.9254 140.742C68.5342 128.069 44.1423 111.594 19.047 97.9459L18.8869 119.252C43.9434 133.524 68.9288 147.978 93.843 162.616L93.9108 227.833L0.014565 173.446L0.0727066 151.757L75.184 195.047L75.2033 173.586L0 130.082L0.014565 65Z" fill="black"/>
<path fill-rule="evenodd" clip-rule="evenodd" d="M120.152 11.1781C113.388 6.8977 106.358 2.45006 99.6102 0C88.7473 6.32487 77.8249 12.5424 66.8989 18.762C46.4904 30.3795 26.0693 42.0042 6 54.3489L100.013 108.64C116.386 98.8021 132.916 89.3533 149.446 79.9043C164.308 71.409 179.17 62.9136 193.919 54.1355L128.75 16.4705C125.964 14.8551 123.083 13.0323 120.152 11.1781ZM149.614 50.4432C134.843 41.5037 102.665 22.0289 99.0401 22.2519L43.6016 54.2666C45.996 55.6437 50.2768 58.227 55.4615 61.3557C71.3126 70.9211 95.6122 85.5849 100.287 86.4657C106.415 82.9218 112.564 79.4155 118.716 75.9083C131.178 68.8033 143.646 61.6945 155.953 54.2618C154.743 53.5477 152.514 52.1986 149.614 50.4432Z" fill="black"/>
</svg>
